<mxfile host="app.diagrams.net" modified="2022-11-23T23:38:15.038Z" agent="5.0 (Windows NT 10.0; Win64; x64) AppleWebKit/537.36 (KHTML, like Gecko) Chrome/107.0.0.0 Safari/537.36 Edg/107.0.1418.52" etag="jEj7BPVGUXNhdGALNAsP" version="20.6.0" type="github">
  <diagram name="Page-1" id="bfe91b75-5d2c-26a0-9c1d-138518896778">
    <mxGraphModel dx="1372" dy="1273" grid="1" gridSize="10" guides="1" tooltips="1" connect="1" arrows="1" fold="1" page="1" pageScale="1" pageWidth="1100" pageHeight="850" background="none" math="0" shadow="0">
      <root>
        <mxCell id="0" />
        <mxCell id="1" parent="0" />
        <mxCell id="zgqjF2BvaNhmDHwI2ate-1" style="edgeStyle=orthogonalEdgeStyle;rounded=0;orthogonalLoop=1;jettySize=auto;html=1;" edge="1" parent="1" source="7c3789c024ecab99-1" target="7c3789c024ecab99-4">
          <mxGeometry relative="1" as="geometry" />
        </mxCell>
        <mxCell id="7c3789c024ecab99-1" value="" style="fontColor=#0066CC;verticalAlign=top;verticalLabelPosition=bottom;labelPosition=center;align=center;html=1;fillColor=#CCCCCC;strokeColor=#6881B3;gradientColor=none;gradientDirection=north;strokeWidth=2;shape=mxgraph.networks.pc;rounded=0;shadow=0;comic=0;" parent="1" vertex="1">
          <mxGeometry x="130.00000000000028" y="260" width="100" height="70" as="geometry" />
        </mxCell>
        <mxCell id="7c3789c024ecab99-3" value="" style="fontColor=#0066CC;verticalAlign=top;verticalLabelPosition=bottom;labelPosition=center;align=center;html=1;fillColor=#CCCCCC;strokeColor=#6881B3;gradientColor=none;gradientDirection=north;strokeWidth=2;shape=mxgraph.networks.pc;rounded=0;shadow=0;comic=0;" parent="1" vertex="1">
          <mxGeometry x="520.0000000000002" y="600" width="100" height="70" as="geometry" />
        </mxCell>
        <mxCell id="zgqjF2BvaNhmDHwI2ate-2" style="edgeStyle=orthogonalEdgeStyle;rounded=0;orthogonalLoop=1;jettySize=auto;html=1;entryX=0.5;entryY=0.07;entryDx=0;entryDy=0;entryPerimeter=0;" edge="1" parent="1" source="7c3789c024ecab99-4" target="7c3789c024ecab99-3">
          <mxGeometry relative="1" as="geometry" />
        </mxCell>
        <mxCell id="7c3789c024ecab99-4" value="" style="fontColor=#0066CC;verticalAlign=top;verticalLabelPosition=bottom;labelPosition=center;align=center;html=1;fillColor=#CCCCCC;strokeColor=#6881B3;gradientColor=none;gradientDirection=north;strokeWidth=2;shape=mxgraph.networks.pc;rounded=0;shadow=0;comic=0;" parent="1" vertex="1">
          <mxGeometry x="520.0000000000002" y="260" width="100" height="70" as="geometry" />
        </mxCell>
        <mxCell id="zgqjF2BvaNhmDHwI2ate-3" value="&lt;h1&gt;Kali Machine&lt;/h1&gt;&lt;h1&gt;&lt;span data-darkreader-inline-color=&quot;&quot; data-darkreader-inline-bgcolor=&quot;&quot; style=&quot;background-color: initial; color: rgb(0, 0, 0); font-size: 12px; font-weight: normal; --darkreader-inline-bgcolor: initial; --darkreader-inline-color:#e8e6e3;&quot;&gt;10.8.0.2&lt;/span&gt;&lt;br&gt;&lt;/h1&gt;" style="text;html=1;strokeColor=default;fillColor=none;spacing=5;spacingTop=-20;whiteSpace=wrap;overflow=hidden;rounded=0;" vertex="1" parent="1">
          <mxGeometry x="230" y="240" width="190" height="100" as="geometry" />
        </mxCell>
        <mxCell id="zgqjF2BvaNhmDHwI2ate-4" value="&lt;h1&gt;Edge Machine&lt;/h1&gt;&lt;h1&gt;&lt;span style=&quot;font-weight: normal;&quot;&gt;&lt;span data-darkreader-inline-color=&quot;&quot; data-darkreader-inline-bgcolor=&quot;&quot; style=&quot;background-color: initial; color: rgb(0, 0, 0); font-size: 12px; --darkreader-inline-bgcolor: initial; --darkreader-inline-color:#e8e6e3;&quot;&gt;10.10.115.5&lt;br&gt;&lt;/span&gt;&lt;font style=&quot;font-size: 12px;&quot;&gt;10.10.10.5&lt;/font&gt;&lt;/span&gt;&lt;/h1&gt;" style="text;html=1;strokeColor=default;fillColor=none;spacing=5;spacingTop=-20;whiteSpace=wrap;overflow=hidden;rounded=0;" vertex="1" parent="1">
          <mxGeometry x="620" y="240" width="170" height="120" as="geometry" />
        </mxCell>
        <mxCell id="zgqjF2BvaNhmDHwI2ate-8" value="&lt;h1&gt;Internal Machines&lt;/h1&gt;&lt;h1 style=&quot;font-size: 17px;&quot;&gt;&lt;span style=&quot;font-size: 14px; font-weight: 400;&quot;&gt;10.10.10.1&lt;br&gt;10.10.10.5&lt;br&gt;10.10.10.15&lt;br&gt;10.10.10.25&lt;br&gt;10.10.10.35&lt;br&gt;10.10.10.225&lt;/span&gt;&lt;/h1&gt;" style="text;html=1;strokeColor=default;fillColor=none;spacing=5;spacingTop=-20;whiteSpace=wrap;overflow=hidden;rounded=0;" vertex="1" parent="1">
          <mxGeometry x="660" y="590" width="220" height="200" as="geometry" />
        </mxCell>
        <mxCell id="zgqjF2BvaNhmDHwI2ate-9" value="" style="ellipse;whiteSpace=wrap;html=1;strokeColor=default;fontSize=17;fillColor=none;" vertex="1" parent="1">
          <mxGeometry x="70" y="180" width="830" height="230" as="geometry" />
        </mxCell>
        <mxCell id="zgqjF2BvaNhmDHwI2ate-11" value="" style="ellipse;whiteSpace=wrap;html=1;strokeColor=default;fontSize=17;fillColor=none;" vertex="1" parent="1">
          <mxGeometry x="460" y="140" width="430" height="680" as="geometry" />
        </mxCell>
      </root>
    </mxGraphModel>
  </diagram>
</mxfile>
